<?xml version="1.0" standalone="no"?>
<!DOCTYPE svg PUBLIC "-//W3C//DTD SVG 20010904//EN"
 "http://www.w3.org/TR/2001/REC-SVG-20010904/DTD/svg10.dtd">
<svg version="1.0" xmlns="http://www.w3.org/2000/svg"
 width="373.000000pt" height="373.000000pt" viewBox="0 0 373.000000 373.000000"
 preserveAspectRatio="xMidYMid meet">

<g transform="translate(0.000000,373.000000) scale(0.100000,-0.100000)"
fill="#000000" stroke="none">
<path d="M0 1865 l0 -1865 1865 0 1865 0 0 1865 0 1865 -1865 0 -1865 0 0
-1865z m3610 0 l0 -1745 -1742 2 -1743 3 -3 1743 -2 1742 1745 0 1745 0 0
-1745z"/>
<path d="M630 3441 c0 -15 10 -19 47 -24 62 -7 89 -38 98 -109 3 -29 5 -303 3
-608 -2 -439 -6 -560 -16 -578 -15 -26 -68 -52 -107 -52 -18 0 -25 -5 -25 -20
0 -20 7 -20 576 -20 l577 0 -7 53 c-3 28 -6 146 -6 260 0 207 0 208 -21 205
-17 -2 -25 -16 -39 -69 -37 -144 -131 -293 -222 -353 -69 -45 -130 -60 -225
-54 -124 8 -113 -54 -113 658 0 379 4 619 10 635 12 30 63 55 115 55 28 0 35
4 35 20 0 20 -7 20 -340 20 -325 0 -340 -1 -340 -19z"/>
<path d="M2242 3099 c-142 -18 -255 -80 -298 -161 -31 -59 -12 -160 40 -208
36 -33 136 -41 190 -15 75 36 110 140 72 213 -15 29 -60 73 -90 90 -18 9 -17
11 15 27 47 25 135 25 176 0 53 -31 67 -74 71 -208 2 -66 1 -129 -2 -142 -10
-41 -72 -76 -217 -126 -224 -76 -295 -131 -319 -245 -14 -65 -6 -123 25 -184
28 -56 47 -73 110 -101 35 -16 71 -23 120 -23 108 -1 160 18 229 86 33 32 61
58 63 58 2 0 3 -7 3 -16 0 -34 32 -82 69 -102 76 -43 225 -38 320 11 47 24 55
34 42 55 -6 10 -14 9 -39 -5 -24 -14 -36 -15 -49 -7 -17 10 -18 43 -24 400 -4
268 -10 401 -18 429 -17 52 -103 136 -156 152 -99 30 -215 38 -333 22z m148
-911 c-23 -21 -41 -28 -73 -28 -79 0 -117 50 -117 152 1 92 25 136 128 234
l87 82 3 -206 3 -207 -31 -27z"/>
<path d="M1890 1749 c0 -14 7 -19 25 -19 43 0 94 -27 107 -57 16 -36 24 -1045
10 -1164 -12 -97 -28 -119 -96 -126 -37 -5 -46 -9 -46 -25 0 -19 11 -19 423
-16 461 4 464 5 623 70 183 76 325 233 386 428 20 65 23 96 23 235 0 140 -3
169 -23 235 -65 206 -199 343 -402 410 -131 43 -232 50 -644 49 -368 -2 -386
-3 -386 -20z m817 -41 c65 -24 140 -91 175 -155 64 -118 94 -313 85 -563 -14
-384 -107 -565 -315 -609 -115 -24 -202 -8 -229 42 -16 29 -18 80 -21 577 -2
300 0 573 3 608 8 74 33 109 85 122 49 12 155 1 217 -22z"/>
<path d="M965 1393 c-49 -7 -148 -12 -220 -11 -119 0 -130 -1 -130 -18 0 -12
10 -20 31 -24 44 -9 54 -18 72 -59 14 -30 17 -90 20 -366 6 -476 -1 -516 -88
-534 -21 -4 -36 -14 -38 -24 -3 -16 18 -17 278 -17 259 0 281 1 278 17 -2 9
-18 21 -35 25 -68 18 -68 20 -68 433 0 329 2 373 17 401 62 113 204 138 250
44 16 -31 18 -73 18 -416 0 -252 -4 -392 -11 -413 -12 -34 -35 -51 -68 -51
-14 0 -21 -6 -21 -20 0 -20 7 -20 275 -20 268 0 275 0 275 20 0 15 -7 20 -26
20 -38 0 -64 18 -80 55 -11 27 -14 103 -14 371 0 194 -5 363 -11 399 -14 84
-44 133 -103 169 -44 28 -58 31 -151 34 -157 6 -263 -33 -321 -117 -27 -41
-32 -33 -36 54 l-3 60 -90 -12z"/>
</g>
</svg>
